<?xml version="1.0" encoding="iso-8859-1"?>
<svg xmlns="http://www.w3.org/2000/svg" xmlns:xlink="http://www.w3.org/1999/xlink" version="1.1" viewBox="0 0 490.1 490.1" enable-background="new 0 0 490.1 490.1" width="512px" height="512px">
  <path d="m238.65,71.4c-68.2,3.2-124.6,56.5-131,124.6-3.2,41.5 11.7,83.1 42.6,111.8 19.2,18.1 29.8,40.5 29.8,65v88.4c0,6.4 4.3,10.7 10.7,10.7h43.7v7.5c0,6.4 4.3,10.7 10.7,10.7s10.7-4.3 10.7-10.7v-7.5h43.7c5.3,0 10.7-4.3 10.7-9.6v-89.5c0-24.5 10.7-46.9 28.8-63.9 27.7-25.6 43.7-62.8 43.7-100.1-0.3-77.8-65.3-141.7-144.1-137.4zm-36.2,316.3h86.3v20.3h-86.3v-20.3zm0,62.9v-21.3h86.3v21.3h-86.3zm121.4-157.7c-21,20-33.6,45.7-35,73.5h-86.7c-1.9-27.1-14.5-53-35.9-73.5-26.6-24.5-39.4-58.6-36.2-94.8 5.3-57.5 52.2-102.3 109.7-105.5 66-3.2 121.4,50.1 121.4,116.1 0,32-13.8,61.9-37.3,84.2z" fill="#7A7A7A"/>
  <path d="m271.65,182.2l1.1-45.8c0-8.1-10.7-14.5-18.1-7.5l-94.8,94.8c-8.2,8.2-2.9,18.1 7.5,18.1h50.1l-4.3,49c0,11 11.1,14 18.1,8.5l99.1-99.1c6.2-5.3 4.1-18.1-7.5-18.1h-51.2v0.1zm-35.1,82l3.2-30.9c0.8-6-2.1-11.7-10.7-11.7h-36.2l57.5-57.5-1.1,29.8c0,8.8 6.2,10.7 10.7,10.7h36.2l-59.6,59.6z" fill="#7A7A7A"/>
  <rect width="21.3" x="234.35" height="44.7" fill="#7A7A7A"/>
  <path d="m105.821,53.462l31.607,31.607-15.061,15.061-31.608-31.607 15.062-15.061z" fill="#7A7A7A"/>
  <rect width="44.7" x="37.35" y="197.1" height="21.3" fill="#7A7A7A"/>
  <rect width="44.7" x="408.05" y="197.1" height="21.3" fill="#7A7A7A"/>
  <path d="m367.978,100.107l-15.061-15.061 31.607-31.607 15.061,15.061-31.607,31.607z" fill="#7A7A7A"/>
</svg>
